<?xml version="1.0" encoding="UTF-8"?>
<svg width="123px" height="41px" viewBox="0 0 123 41" version="1.1" xmlns="http://www.w3.org/2000/svg" xmlns:xlink="http://www.w3.org/1999/xlink">
    <!-- Generator: Sketch 49 (51002) - http://www.bohemiancoding.com/sketch -->
    <title>Page 1</title>
    <desc>Created with Sketch.</desc>
    <defs>
        <polygon id="path-1" points="0 0 123 0 123 41 0 41"></polygon>
    </defs>
    <g id="Page-1" stroke="none" stroke-width="1" fill="none" fill-rule="evenodd">
        <g id="Artboard" transform="translate(-229.000000, -188.000000)">
            <g id="Page-1" transform="translate(229.000000, 188.000000)">
                <mask id="mask-2" fill="white">
                    <use xlink:href="#path-1"></use>
                </mask>
                <g id="Clip-2"></g>
                <path d="M80.139385,32.6084134 L84.0990206,32.6084134 L84.0990206,15.3599844 L80.139385,15.3599844 L80.139385,32.6084134 Z M116.849098,15 C114.165834,15 112.56277,16.4048933 111.450292,18.0380427 L111.450292,15.3599844 L107.491597,15.3599844 L107.491597,32.6084134 L111.450292,32.6084134 L111.450292,22.8727217 C111.450292,20.1940376 113.053513,18.5935857 115.34412,18.5935857 C117.700221,18.5935857 119.041148,20.1284864 119.041148,22.8071705 L119.041148,32.6084134 L123,32.6084134 L123,21.6316284 C123,17.6136022 120.742298,15 116.849098,15 Z M95.9099253,29.5702142 C92.8338473,29.5702142 90.6417971,27.0543914 90.6417971,23.9836513 C90.6417971,20.946078 92.6702662,18.4624832 95.8442735,18.4624832 C98.9521589,18.4624832 101.144679,20.9778367 101.144679,24.0492026 C101.144679,27.0872452 99.11574,29.5702142 95.9099253,29.5702142 Z M95.9099253,15 C90.6095196,15 86.6827882,19.0831081 86.6827882,24.0492026 C86.6827882,28.9816609 90.5761452,33 95.8442735,33 C101.178054,33 105.104315,28.916579 105.104315,23.9836513 C105.104315,19.0184955 101.209861,15 95.9099253,15 Z M46.8995047,28.0343749 L42.2535803,15.3599844 L38,15.3599844 L45.1002686,32.7384208 L48.6664633,32.7384208 L55.7336709,15.3599844 L51.57849,15.3599844 L46.8995047,28.0343749 Z M72.1572823,22.4160532 C70.1283432,21.7616357 68.2629852,21.2394159 68.2629852,19.998479 L68.2629852,19.9329277 C68.2629852,18.9202468 69.1463862,18.2013733 70.6841118,18.2013733 C71.4343288,18.2013733 72.2737007,18.373152 73.1412763,18.6771283 L73.1408063,18.6749381 C73.1408063,18.6749381 73.1492674,18.6791621 73.1657195,18.6866716 C73.2403025,18.7129547 73.3161389,18.7426796 73.3918187,18.7711529 C74.0179397,18.9689018 75.7071816,19.2331407 77.1305257,17.0259876 C75.2979153,15.8166529 72.9429107,15.0650819 70.7820411,15.0650819 C67.34715,15.0650819 64.6316087,17.0575898 64.6316087,20.3251402 L64.6316087,20.3906914 C64.6316087,23.6896875 67.477827,24.7352223 70.0299438,25.4540959 C72.058883,26.0747208 73.8913367,26.5317022 73.8913367,27.8710443 L73.8913367,27.9361262 C73.8913367,29.0799096 72.9095363,29.7986267 71.2080729,29.7986267 C70.0769499,29.7986267 68.8381829,29.5005954 67.6039599,28.919708 C67.248594,28.7701447 65.4006282,28.1390379 63.8205971,30.3827995 C65.973319,32.0613185 68.6705279,32.9350745 71.1101435,32.9350745 C74.7081457,32.9350745 77.5228698,31.1390639 77.5228698,27.5116857 L77.5228698,27.4466038 C77.5228698,24.3436357 74.6764949,23.1998522 72.1572823,22.4160532 Z M57.6953914,32.6084134 L61.6544002,32.6084134 L61.6544002,15.3599844 L57.6953914,15.3599844 L57.6953914,32.6084134 Z" id="Fill-1" fill="#FFFFFF" mask="url(#mask-2)"></path>
                <path d="M30.4179621,31.6119318 C27.8765833,31.6119318 26.6614924,30.102697 26.6614924,28.0393409 C26.6614924,27.4505871 26.7347955,26.8239394 26.9189848,26.1977576 L28.1345417,21.8516023 C28.2817689,21.3726477 28.3187311,20.9311212 28.3187311,20.525625 C28.3187311,19.1265 27.471553,18.2790114 26.1087689,18.2790114 C24.3774508,18.2790114 23.2356629,19.5215909 22.6465985,21.9157424 L20.2890985,31.3712121 L16.1640947,31.3712121 L16.9044242,28.3997992 C15.6919735,30.3915606 14.0080227,31.6252879 11.9306894,31.6252879 C9.42611742,31.6252879 8.24752273,30.1825227 8.24752273,28.0090568 C8.24752273,27.4572652 8.32129167,26.7810758 8.46851894,26.1548939 L10.3469091,18.4810606 L7.43730682,18.4810606 L8.32129167,15.219697 L15.3194015,15.219697 L12.5567159,26.1783447 C12.3725265,26.8784508 12.2989129,27.4594394 12.2989129,27.8638485 C12.2989129,28.5647311 12.6438409,28.7695758 13.1832083,28.891178 C13.5115189,28.9647917 16.1289962,28.9133864 17.5542121,25.7458258 L19.3684621,18.4810606 L16.4218977,18.4810606 L17.3058826,15.219697 L23.6040417,15.219697 L22.7939811,18.9224318 C23.8986515,16.8595417 26.1087689,14.8994621 28.2817689,14.8994621 C30.6023068,14.8994621 32.5176591,16.5525076 32.5176591,19.7200682 C32.5176591,20.5301288 32.4070833,21.4117841 32.1124735,22.4061894 L30.9335682,26.6402159 C30.8234583,27.0832955 30.7493788,27.4512083 30.7493788,27.782625 C30.7493788,28.5189167 31.0442992,28.8869848 31.5968674,28.8869848 C32.149125,28.8869848 32.8490758,28.4810227 33.659447,26.2353409 L35.2798788,26.8610568 C34.3222803,30.2129621 32.5912727,31.6119318 30.4179621,31.6119318 Z M13.661697,8.00323106 C15.0247917,8.00323106 16.1662689,9.07125 16.1662689,10.470375 C16.1662689,11.8704318 15.0247917,12.9387614 13.661697,12.9387614 C12.2989129,12.9387614 11.1572803,11.8704318 11.1572803,10.470375 C11.1572803,9.07125 12.2989129,8.00323106 13.661697,8.00323106 Z M41,3.71671212 C41,1.66407197 39.335928,0 37.2834432,0 L3.71671212,0 C1.66407197,0 0,1.66407197 0,3.71671212 L0,37.2834432 C0,39.335928 1.66407197,41 3.71671212,41 L37.2834432,41 C39.335928,41 41,39.335928 41,37.2834432 L41,3.71671212 Z" id="Fill-3" fill="#FFFFFF" mask="url(#mask-2)"></path>
            </g>
        </g>
    </g>
</svg>