<?xml version="1.0" encoding="UTF-8"?>
<svg width="29px" height="29px" viewBox="0 0 29 29" version="1.1" xmlns="http://www.w3.org/2000/svg" xmlns:xlink="http://www.w3.org/1999/xlink">
    <!-- Generator: Sketch 49 (51002) - http://www.bohemiancoding.com/sketch -->
    <title>Slack-color</title>
    <desc>Created with Sketch.</desc>
    <defs></defs>
    <g id="Page-1" stroke="none" stroke-width="1" fill="none" fill-rule="evenodd">
        <g id="Artboard" transform="translate(-190.000000, -726.000000)" fill="#FFFFFF">
            <path d="M217.786031,736.513923 C214.797213,726.54878 210.478925,724.224245 200.513782,727.213969 C190.549545,730.202787 188.224104,734.521075 191.213828,744.486218 C194.203552,754.450455 198.521841,756.775896 208.486077,753.786172 C218.45122,750.796448 220.775755,746.478159 217.786031,736.513923 M212.746366,742.982747 L210.867706,743.611685 L211.518395,745.556501 C211.782114,746.343128 211.357989,747.195004 210.570456,747.458724 C210.399174,747.516724 210.225174,747.541192 210.054799,747.536661 C209.44036,747.520349 208.873953,747.127035 208.668234,746.510784 L208.016639,744.566875 L204.142413,745.864627 L204.793102,747.808537 C205.056821,748.596069 204.632695,749.447946 203.845163,749.711665 C203.673881,749.768759 203.499881,749.793228 203.329506,749.788696 C202.715067,749.77329 202.14866,749.379071 201.942941,748.763726 L201.291346,746.81891 L199.412686,747.448755 C199.241404,747.505849 199.066498,747.530317 198.896123,747.525786 C198.28259,747.51038 197.716183,747.11616 197.509558,746.499909 C197.245838,745.713283 197.669964,744.861406 198.457497,744.597687 L200.337063,743.967842 L199.087342,740.238617 L197.208682,740.868462 C197.037401,740.925556 196.8634,740.950024 196.692119,740.945493 C196.078586,740.930087 195.512179,740.535867 195.305554,739.919616 C195.041834,739.13299 195.466867,738.281113 196.253493,738.017394 L198.133059,737.387549 L197.481464,735.44364 C197.217745,734.656107 197.64187,733.80423 198.429403,733.541417 C199.216936,733.277698 200.068812,733.701824 200.332531,734.489357 L200.98322,736.433266 L204.858352,735.135514 L204.206757,733.191604 C203.943038,732.404072 204.36807,731.552195 205.154696,731.288476 C205.942229,731.024757 206.794105,731.449789 207.057825,732.236415 L207.708513,734.181231 L209.588079,733.551386 C210.375612,733.287667 211.226582,733.712699 211.490301,734.499325 C211.754021,735.286858 211.329895,736.138735 210.542362,736.402454 L208.663703,737.031392 L209.912517,740.761524 L211.792083,740.131679 C212.57871,739.868866 213.430586,740.292992 213.694305,741.079618 C213.958024,741.867151 213.533899,742.719028 212.746366,742.982747 Z M201.938137,739.284062 L203.186952,743.013287 L207.062084,741.715535 L205.813269,737.98631 L201.938137,739.284062 Z" id="Slack"></path>
        </g>
    </g>
</svg>